<?xml version="1.0" ?>
<!-- Uploaded to: SVG Repo, www.svgrepo.com, Generator: SVG Repo Mixer Tools -->
<svg width="800px" height="800px" viewBox="0 0 101 101" id="Layer_1" version="1.1" xml:space="preserve" xmlns="http://www.w3.org/2000/svg" xmlns:xlink="http://www.w3.org/1999/xlink">
<style type="text/css">
	.st0{fill:#F15A22;}
	.st1{fill:#FDB913;}
</style>
<title/>
<g>
<g id="fill">
<path class="st0" d="M78.4,4.4C74.6,2.1,70,1.1,67.8,6c-2,4.4-2.5,10.1-2.9,15.1c-12.1,6.7-22.5,16-32.5,25.5    c-5.5,5.2-11.6,10.4-15,17.3c-2.6,5.3-4,11.3-5.3,17.3c-1.2,2.8-1.8,5.9-1.8,9c-0.1,0.2-0.1,0.4-0.2,0.6c-0.7,2.6,1.3,4.4,3.4,4.6    c3.7,1.8,9.6,1,12.7,0.6C33.2,95,36.1,92,39,86.1c0.8-0.3,1.5-0.9,1.9-1.7c3.3-6.4,6.6-12.7,10.1-19c3.3-5,6.5-10.1,9.8-15.1    c-0.5,3.2-0.7,6.5-0.5,9.8C60.9,69.6,65,78.5,73,84c0.9,0.7,2.1,0.8,3.2,0.4c0.5,0.2,0.9,0.5,1.4,0.6c4.5,1.8,6.4-5.4,2-7.2    c-7.2-2.9-7.7-15.9-7.8-22.3c-0.1-8,1.7-15.9,5.3-23c0.5-0.9,0.6-2,0.2-3c3,0.1,6.3,0.1,8.8-1.8c0.6-0.4,1.1-0.9,1.5-1.5    c0.5-0.2,0.9-0.5,1.3-0.8C96.8,18.1,84.4,8,78.4,4.4z"/>
<path class="st1" d="M46,55.8c-2.8-3.9-6-7.6-9.5-10.9c-3.5-3.3-8.8,2-5.3,5.3c3.1,2.9,5.8,6,8.3,9.4c1.1,1.7,3.3,2.3,5.1,1.3    C46.3,60,47.2,57.4,46,55.8z"/>
</g>
<g id="line_copy">
<path d="M91.5,22.1c0-0.5-0.2-1-0.4-1.5c-0.2-0.4-0.4-0.7-0.6-1.1l0,0c-2.7-4.3-6.4-7.5-9.9-10.5c-1.1-1-2.3-1.8-3.5-2.6    c-1.3-0.8-2.8-1.3-4.4-1.3c-0.3,0-0.6,0-0.9,0.1c-1.1,0.1-2.2,0.6-3.1,1.4c-0.9,0.9-1.6,2.1-1.9,3.4l1.3,0.5l-1.3-0.5    c-1,3-1.5,6.1-1.5,9.2c0,1.5,0.1,2.9,0.4,4.4C57,29.6,48.5,36.1,40.2,42.9c-1.4,1.1-2.7,2.2-4,3.4c-0.1,0-0.1-0.1-0.2-0.1    c-0.5-0.4-1.1-0.6-1.8-0.7c-0.1,0-0.2,0-0.3,0c-0.8,0-1.5,0.3-2.1,0.7c-0.6,0.4-1.2,0.9-1.6,1.5c-0.4,0.5-0.6,1.2-0.6,1.9    c0,0.5,0.1,0.9,0.3,1.3c0.1,0.2,0.2,0.4,0.3,0.6c-5.4,4.8-10.3,10.2-14.7,16.1c-1.3,1.7-2.4,3.6-3.3,5.6c-0.7,1.8-1.1,3.7-1.4,5.6    c-1,5.5-1.8,11.1-2.4,16.6c-0.1,0.8,0.5,1.5,1.2,1.5c0,0,0,0,0,0c3.4,0.4,6.9,0.6,10.4,0.6c4.1,0,8.1-0.3,12.1-0.8    c0.5-0.1,1.1-0.2,1.6-0.3c0.6-0.2,1.2-0.4,1.8-0.8c0.5-0.4,1-0.8,1.4-1.4c0.3-0.5,0.6-0.9,0.9-1.4c6.7-11.6,13.4-23.1,20.1-34.7    c0,0.4,0,0.8,0,1.2c0,9.5,4,18.6,11.1,24.9c1.1,1,2.4,1.8,3.8,2.3c0.6,0.2,1.3,0.3,2,0.3c1.4,0,2.7-0.3,3.9-0.9    c1.2-0.5,2.3-1.1,3.4-1.8c0.7-0.4,0.9-1.3,0.5-1.9c-0.1-0.2-0.4-0.4-0.6-0.6c-2.7-1.3-5-3.3-6.7-5.7c-1.8-2.5-3.2-5.4-4-8.4    c-0.9-3.4-1.3-7-1.3-10.5c0-2.9,0.2-5.8,0.5-8.7c0.7-6,1.7-11.9,4-17.2c0-0.1,0-0.1,0.1-0.2c0.9,0,1.7-0.1,2.5-0.3    c1.9-0.4,3.7-0.8,5.6-1.3c1.3-0.3,2.6-0.7,3.8-1.3c1.3-0.6,2.5-1.4,3.5-2.5c0.4-0.4,0.7-0.9,1-1.4c0.3-0.6,0.4-1.2,0.5-1.9    C91.5,22.3,91.5,22.2,91.5,22.1L91.5,22.1z M69.4,10.8L69.4,10.8c0.2-0.8,0.6-1.6,1.2-2.2c0.4-0.4,1-0.6,1.5-0.7    c0.2,0,0.4,0,0.5,0c1.1,0,2.1,0.4,3,1c1.1,0.7,2.1,1.5,3.1,2.3c3.5,3,7,6.1,9.4,9.9c0.2,0.2,0.3,0.5,0.4,0.7    c0.1,0.2,0.1,0.4,0.2,0.5v0.1c0,0.2-0.1,0.5-0.2,0.7c-0.1,0.3-0.3,0.6-0.5,0.8c-0.7,0.8-1.6,1.4-2.6,1.8c-1.1,0.5-2.2,0.8-3.4,1.1    c-1.8,0.5-3.6,0.9-5.4,1.3c-0.7,0.2-1.4,0.2-2.2,0.2c-2.5,0.1-4.8-1.5-5.6-3.9c-0.6-1.7-0.9-3.5-0.8-5.3    C68.1,16.3,68.5,13.5,69.4,10.8z M77.6,83.4c-0.9,0.4-1.9,0.6-2.8,0.7c-0.4,0-0.8-0.1-1.2-0.2c-1-0.4-2-1-2.8-1.7    C64.4,76.7,60.7,68,60.7,59.4c0-2.4,0.3-4.8,0.9-7.2c0-0.1,0-0.3,0-0.4c2.5-4.4,5.1-8.8,7.6-13.2c-0.7,3.1-1.2,6.3-1.5,9.5    c-0.3,3-0.5,6-0.6,9c0,3.8,0.4,7.6,1.4,11.2c0.9,3.4,2.4,6.5,4.4,9.4c1.5,2.1,3.4,3.9,5.5,5.3C78.2,83.1,77.9,83.3,77.6,83.4    L77.6,83.4z M34,93.3c-0.3,0.2-0.6,0.3-0.9,0.4c-0.4,0.1-0.8,0.2-1.3,0.2c-3.9,0.5-7.8,0.8-11.8,0.8c-2.9,0-5.8-0.1-8.6-0.4    c0.6-5,1.4-10.1,2.2-15.1c0.3-1.7,0.7-3.4,1.3-5.1c0.8-1.8,1.7-3.5,2.9-5c4.2-5.7,8.9-10.9,14.2-15.6c0,0,0.1,0.1,0.1,0.1    c2.1,2.1,4.4,4.1,6.8,5.9l0,0c0.5,0.4,1,0.7,1.5,1c0.6,0.4,1.3,0.6,2,0.6c0.1,0,0.2,0,0.3,0c0.8,0,1.6-0.3,2.2-0.7    c0.3-0.3,0.6-0.6,0.8-0.9c0.2-0.4,0.4-0.9,0.4-1.3l0,0l0-0.2c0-0.7-0.2-1.3-0.6-1.9c-0.3-0.4-0.6-0.8-0.9-1.2l-6.5-6.8    c1.3-1.1,2.5-2.1,3.8-3.2c8-6.6,16.2-12.8,24.6-18.8c0.2,0.3,0.3,0.7,0.5,1c0.7,1.2,1.7,2.2,2.9,2.8c0.2,0.1,0.5,0.2,0.7,0.3    C59,50.7,47.2,71.1,35.4,91.4c-0.2,0.4-0.5,0.8-0.7,1.2C34.5,92.9,34.3,93.1,34,93.3z M32.8,50.2c-0.1-0.2-0.2-0.3-0.3-0.5    c0-0.1-0.1-0.2-0.1-0.3c0-0.1,0-0.2,0.1-0.3c0.2-0.3,0.5-0.5,0.8-0.7c0.2-0.1,0.4-0.2,0.6-0.2h0c0.1,0,0.3,0.1,0.4,0.2    c0.3,0.2,0.5,0.4,0.7,0.6c2.5,2.7,5.1,5.3,7.6,8c0.2,0.2,0.4,0.5,0.6,0.7c0.1,0.1,0.1,0.2,0.1,0.3v0l0,0c-0.1,0.1-0.1,0.2-0.2,0.2    c-0.1,0.1-0.3,0.1-0.4,0.1h-0.1c-0.3,0-0.6-0.1-0.9-0.3c-0.4-0.2-0.8-0.5-1.1-0.8l-0.8,1.1l0.8-1.1c-2.3-1.7-4.5-3.6-6.5-5.7    C33.7,51.2,33.2,50.8,32.8,50.2z"/>
</g>
</g>
</svg>