<?xml version="1.0" ?><!-- Uploaded to: SVG Repo, www.svgrepo.com, Generator: SVG Repo Mixer Tools -->
<svg width="800px" height="800px" viewBox="0 0 32 32" id="object" xmlns="http://www.w3.org/2000/svg"><defs><style>.cls-1{fill:#91e085;}.cls-2{fill:#6d6daa;}.cls-3{fill:#96d7ff;}.cls-4{fill:#eef5fd;}.cls-5{fill:#f4dab7;}.cls-6{fill:#d6b5b0;}.cls-7{fill:#ffc661;}</style></defs><title/><rect class="cls-1" height="6" width="28" x="2" y="2"/><path class="cls-2" d="M30,9H2A1,1,0,0,1,1,8V2A1,1,0,0,1,2,1H30a1,1,0,0,1,1,1V8A1,1,0,0,1,30,9ZM3,7H29V3H3Z"/><rect class="cls-3" height="22" width="28" x="2" y="8"/><path class="cls-2" d="M30,31H2a1,1,0,0,1-1-1V8A1,1,0,0,1,2,7H30a1,1,0,0,1,1,1V30A1,1,0,0,1,30,31ZM3,29H29V9H3Z"/><circle class="cls-4" cx="16" cy="19" r="8"/><path class="cls-2" d="M16,28a9,9,0,1,1,9-9A9,9,0,0,1,16,28Zm0-16a7,7,0,1,0,7,7A7,7,0,0,0,16,12Z"/><path class="cls-2" d="M23.7,6H22.3a1,1,0,0,1,0-2h1.4a1,1,0,0,1,0,2Z"/><rect class="cls-5" height="6" width="14" x="2" y="2"/><path class="cls-2" d="M16,9H2A1,1,0,0,1,1,8V2A1,1,0,0,1,2,1H16a1,1,0,0,1,1,1V8A1,1,0,0,1,16,9ZM3,7H15V3H3Z"/><rect class="cls-6" height="6" width="7" x="2" y="2"/><path class="cls-2" d="M9,9H2A1,1,0,0,1,1,8V2A1,1,0,0,1,2,1H9a1,1,0,0,1,1,1V8A1,1,0,0,1,9,9ZM3,7H8V3H3Z"/><rect class="cls-7" height="4" width="5" x="21" y="17"/><path class="cls-2" d="M26,22H21a1,1,0,0,1-1-1V17a1,1,0,0,1,1-1h5a1,1,0,0,1,1,1v4A1,1,0,0,1,26,22Zm-4-2h3V18H22Z"/></svg>