<?xml version="1.0" encoding="utf-8"?>
<!-- Uploaded to: SVG Repo, www.svgrepo.com, Generator: SVG Repo Mixer Tools -->
<svg width="800px" height="800px" viewBox="0 0 1024 1024" class="icon"  version="1.1" xmlns="http://www.w3.org/2000/svg"><path d="M433.662833 721.064256l308.434483-152.439036 64.873762 131.26128-308.435623 152.437895z" fill="#178E3B" /><path d="M448.410548 727.854497l293.996815-145.302272 12.165896 24.616762-293.996814 145.302272z" fill="#2FA65B" /><path d="M542.730727 866.377926a122.924226 122.924226 0 0 1-110.009432-68.392559l-31.996319-64.744956a23.937396 23.937396 0 0 1 10.863019-32.019117l328.124701-162.147359a23.937396 23.937396 0 0 1 32.064711 10.85162l31.996319 64.744956A122.719049 122.719049 0 0 1 748.136379 778.881045l-10.600846-21.463865 10.600846 21.463865-151.261543 74.741669a122.092117 122.092117 0 0 1-54.144109 12.755212z m-88.477174-132.829749l21.395472 43.315288a74.707472 74.707472 0 0 0 100.069713 33.877114l151.261543-74.741668a74.787263 74.787263 0 0 0 33.877114-100.069713l-21.395472-43.315288z" fill="#203529" /><path d="M647.086373 1023.999977a58.646619 58.646619 0 0 1-52.605277-32.623251L528.812841 858.52418a23.937396 23.937396 0 0 1 10.851619-32.064711l221.694481-109.599076a23.937396 23.937396 0 0 1 32.064711 10.851619l65.668256 132.898141A58.578227 58.578227 0 0 1 832.487202 939.079216l-10.600846-21.463865 10.600846 21.463865-159.582638 78.856621a58.224865 58.224865 0 0 1-25.818191 6.06414z m-64.756355-165.282018l55.067409 111.434277a10.714834 10.714834 0 0 0 14.328241 4.855871l159.582638-78.85662a10.703436 10.703436 0 0 0 4.855872-14.328241l-55.067409-111.434277z" fill="#203529" /><path d="M575.559155 902.888154a11.968698 11.968698 0 0 1-5.311822-22.70633L778.913031 777.068642a11.968698 11.968698 0 1 1 10.600847 21.463865l-208.6543 103.113182a11.923103 11.923103 0 0 1-5.300423 1.242465zM458.243119 773.033481a11.968698 11.968698 0 0 1-5.33462-22.660734l299.297238-147.88751a11.968698 11.968698 0 0 1 10.600846 21.463864L463.532143 771.836612a11.923103 11.923103 0 0 1-5.289024 1.196869zM594.013747 940.230491a11.968698 11.968698 0 0 1-5.311822-22.70633L797.379022 814.41098a11.968698 11.968698 0 0 1 10.600846 21.463865l-208.665697 103.113181a11.923103 11.923103 0 0 1-5.300424 1.242465zM612.491137 977.572828a11.968698 11.968698 0 0 1-5.311822-22.706329l208.665698-103.113182a11.968698 11.968698 0 0 1 10.600846 21.463865l-208.677096 103.113181a11.923103 11.923103 0 0 1-5.277626 1.242465zM511.042174 703.501046a23.937396 23.937396 0 0 1-21.475263-13.336549l-198.338422-401.430125a108.18563 108.18563 0 0 1 193.984095-95.863571l198.338422 401.430126a23.937396 23.937396 0 0 1-10.851619 32.064711l-151.044967 74.684675A23.846206 23.846206 0 0 1 511.042174 703.501046zM388.106549 180.525944a60.29944 60.29944 0 0 0-53.973128 87.029532l187.771771 379.966261L630.045227 594.072952 442.273456 214.11809a60.413427 60.413427 0 0 0-54.166907-33.592146z" fill="#203529" /><path d="M422.508006 747.283683a23.937396 23.937396 0 0 1-21.463864-13.336549L224.30637 376.276847a110.191812 110.191812 0 0 1 49.972163-147.602541l7.751157-3.829983a110.317198 110.317198 0 0 1 147.602541 49.972163L606.370003 632.486772a23.937396 23.937396 0 0 1-10.851619 32.064712l-162.398132 80.247269a23.937396 23.937396 0 0 1-10.612246 2.48493z m-91.771415-485.963329a61.929462 61.929462 0 0 0-27.505208 6.440299l-7.751156 3.829984a62.31702 62.31702 0 0 0-28.257526 83.473118l166.136925 336.263416 119.481801-59.045576-166.136925-336.263416a62.396811 62.396811 0 0 0-55.967911-34.697825z" fill="#203529" /><path d="M584.928936 667.025015A23.937396 23.937396 0 0 1 563.47647 653.688466L386.704502 296.018179A110.191812 110.191812 0 0 1 436.676665 148.381441l11.39876-5.69938a110.191812 110.191812 0 0 1 147.602541 49.972164l176.794766 357.750078a23.937396 23.937396 0 0 1-10.85162 32.064711l-166.09133 82.071071a23.846206 23.846206 0 0 1-10.600846 2.48493z m-88.044021-487.866922a62.054849 62.054849 0 0 0-27.550803 6.485894l-11.39876 5.69938a62.31702 62.31702 0 0 0-28.257526 83.473119l166.136925 336.263415 123.174999-60.869377-166.136925-336.263416a62.488002 62.488002 0 0 0-55.96791-34.789015z" fill="#203529" /><path d="M703.818001 732.864252a11.968698 11.968698 0 0 1-5.266227-22.729127c1.504636-0.740919 35.723713-18.010041 26.160154-45.526647a11.968698 11.968698 0 0 1 22.615139-7.865145c13.256758 38.128852-19.252505 65.679654-38.288434 74.91265a11.923103 11.923103 0 0 1-5.220632 1.208269z" fill="#2FA65B" /><path d="M179.623231 296.690706a11.934502 11.934502 0 0 1-4.559503-0.900502L93.300423 262.220856a11.968698 11.968698 0 1 1 9.119008-22.14779l81.751906 33.580746a11.968698 11.968698 0 0 1-4.559504 23.048293zM575.1488 109.363486h-0.900502a11.968698 11.968698 0 0 1-11.045399-12.823604l6.314913-85.262724a11.968698 11.968698 0 1 1 23.869003 1.766808L587.071903 98.226898a11.968698 11.968698 0 0 1-11.923103 11.136588zM252.780472 203.44885a11.934502 11.934502 0 0 1-8.697254-3.772989l-56.378266-59.672508a11.968698 11.968698 0 0 1 17.405907-16.437012l56.378266 59.695306a11.968698 11.968698 0 0 1-8.697254 20.187203zM443.071369 109.409081a11.968698 11.968698 0 0 1-11.923103-11.045398l-5.97295-77.146807a11.968698 11.968698 0 0 1 23.869003-1.846599l5.972951 77.146807a11.968698 11.968698 0 0 1-11.011202 12.857801q-0.467349 0.034196-0.934699 0.034196zM223.645242 731.997946q-12.379053 0-23.470046-0.968895c-43.132907-3.77299-71.162458-18.135427-83.290739-42.688355-12.265066-24.735309-6.406103-56.104696 17.394508-93.127868 21.121902-32.828428 56.583444-69.874398 102.66863-107.148343a11.968698 11.968698 0 0 1 15.057762 18.614175C164.645261 577.339572 121.101998 642.905239 138.302727 677.796843c17.00695 34.412856 94.142358 39.98685 201.313498 14.544817a11.968698 11.968698 0 0 1 5.528398 23.287667C299.469793 726.480946 257.989705 731.997946 223.645242 731.997946zM802.690844 489.911084a11.968698 11.968698 0 0 1-7.511783-21.292883c44.591949-35.894695 78.719836-71.219452 98.713261-102.132889 13.199764-20.426578 26.764288-49.17425 16.391416-70.147968-18.420396-37.273945-107.615692-40.385806-227.257075-7.979132a11.968698 11.968698 0 0 1-6.269318-23.105286c63.114933-17.09814 119.253826-25.077272 162.363935-22.88871 48.444729 2.405138 79.608939 16.984152 92.614924 43.315288 12.322059 24.929088 6.349109 56.480855-17.747869 93.7548-21.349877 33.056404-57.244572 70.296152-103.797107 107.775274a11.923103 11.923103 0 0 1-7.500384 2.701506z" fill="#203529" /></svg>