<?xml version="1.0" encoding="iso-8859-1"?>
<!-- Uploaded to: SVG Repo, www.svgrepo.com, Generator: SVG Repo Mixer Tools -->
<svg version="1.1" id="Layer_1" xmlns="http://www.w3.org/2000/svg" xmlns:xlink="http://www.w3.org/1999/xlink" 
	 viewBox="0 0 504.123 504.123" xml:space="preserve">
<circle style="fill:#FFD05B;" cx="252.062" cy="252.062" r="252.062"/>
<circle style="fill:#324A5E;" cx="345.797" cy="345.403" r="36.628"/>
<g>
	<circle style="fill:#ACB3BA;" cx="345.797" cy="345.403" r="10.24"/>
	<path style="fill:#ACB3BA;" d="M349.735,330.831c-1.969,0.788-6.302,0.788-7.877,0c-1.969-1.182-5.12-6.302-3.938-8.271
		c1.969-3.151,13.785-3.151,15.754,0C354.855,324.529,351.705,329.649,349.735,330.831z"/>
	<path style="fill:#ACB3BA;" d="M341.465,359.975c1.969-0.788,6.302-0.788,7.877,0c1.969,1.182,5.12,6.302,3.938,8.271
		c-1.969,3.151-13.785,3.151-15.754,0C336.345,366.277,339.495,360.763,341.465,359.975z"/>
	<path style="fill:#ACB3BA;" d="M359.975,349.342c-0.788-1.969-0.788-6.302,0-7.877c1.182-1.969,6.302-5.12,8.271-3.938
		c3.151,1.969,3.151,13.785,0,15.754C366.671,354.462,361.157,351.311,359.975,349.342z"/>
	<path style="fill:#ACB3BA;" d="M331.225,341.465c0.788,1.969,0.788,6.302,0,7.877c-1.182,1.969-6.302,5.12-8.271,3.938
		c-3.151-1.969-3.151-13.785,0-15.754C324.529,335.951,330.043,339.102,331.225,341.465z"/>
</g>
<circle style="fill:#2B3B4E;" cx="345.797" cy="345.403" r="3.938"/>
<rect x="90.585" y="122.486" style="fill:#FF7058;" width="181.169" height="166.991"/>
<polygon style="fill:#54C0EB;" points="401.723,215.434 346.585,122.486 281.6,122.486 281.6,289.477 401.723,289.477 "/>
<polygon style="fill:#E6E9EE;" points="378.486,215.04 335.163,142.178 301.292,142.178 301.292,215.04 "/>
<rect x="301.292" y="233.157" style="fill:#324A5E;" width="21.268" height="6.695"/>
<path style="fill:#FFFFFF;" d="M388.332,244.185c0,7.483,5.908,13.391,13.391,13.391v-26.782
	C394.24,230.794,388.332,236.702,388.332,244.185z"/>
<path style="fill:#F1543F;" d="M397.391,252.849c0,2.363,1.969,4.332,4.332,4.332v-8.665
	C399.36,248.517,397.391,250.486,397.391,252.849z"/>
<g>
	<path style="fill:#324A5E;" d="M405.662,289.477H90.585v55.532h20.874c0-24.418,20.086-44.111,44.505-44.111
		s44.111,19.692,44.505,44.111h101.218c0-24.418,20.086-44.111,44.505-44.111c24.418,0,44.111,19.692,44.505,44.111h15.754v-55.532
		H405.662z"/>
	<circle style="fill:#324A5E;" cx="155.963" cy="345.403" r="36.628"/>
</g>
<g>
	<circle style="fill:#ACB3BA;" cx="155.963" cy="345.403" r="10.24"/>
	<path style="fill:#ACB3BA;" d="M159.902,330.831c-1.969,0.788-6.302,0.788-7.877,0c-1.969-1.182-5.12-6.302-3.938-8.271
		c1.969-3.151,13.785-3.151,15.754,0C165.022,324.529,161.871,329.649,159.902,330.831z"/>
	<path style="fill:#ACB3BA;" d="M152.025,359.975c1.969-0.788,6.302-0.788,7.877,0c1.969,1.182,5.12,6.302,3.938,8.271
		c-1.969,3.151-13.785,3.151-15.754,0C146.511,366.277,149.662,360.763,152.025,359.975z"/>
	<path style="fill:#ACB3BA;" d="M170.535,349.342c-0.788-1.969-0.788-6.302,0-7.877c1.182-1.969,6.302-5.12,8.271-3.938
		c3.151,1.969,3.151,13.785,0,15.754C176.837,354.462,171.323,351.311,170.535,349.342z"/>
	<path style="fill:#ACB3BA;" d="M141.391,341.465c0.788,1.969,0.788,6.302,0,7.877c-1.182,1.969-6.302,5.12-8.271,3.938
		c-3.151-1.969-3.151-13.785,0-15.754C135.089,335.951,140.209,339.102,141.391,341.465z"/>
</g>
<circle style="fill:#2B3B4E;" cx="155.963" cy="345.403" r="3.938"/>
<g>
	<path style="fill:#F1543F;" d="M126.425,168.96c1.969,1.575,2.757,3.938,2.757,7.089c0,3.151-0.788,5.514-2.757,7.483
		c-1.969,1.969-4.726,2.757-8.665,2.757h-6.695v-19.692h7.089C121.698,166.597,124.455,167.385,126.425,168.96z M126.031,176.443
		c0-4.726-2.757-6.695-7.877-6.695h-3.151v13.391h3.545c2.363,0,4.332-0.394,5.514-1.575
		C125.243,180.382,126.031,178.806,126.031,176.443z"/>
	<path style="fill:#F1543F;" d="M147.298,166.597v3.151h-10.634v5.12h9.452v3.151h-9.452v5.12h11.028v3.151h-14.178v-19.692
		L147.298,166.597L147.298,166.597z"/>
	<path style="fill:#F1543F;" d="M152.025,186.289v-19.692h3.151v16.542h9.058v3.151H152.025z"/>
	<path style="fill:#F1543F;" d="M168.172,166.597h3.151v19.692h-3.151V166.597z"/>
	<path style="fill:#F1543F;" d="M185.895,186.289h-3.545l-7.877-19.692h3.545l5.908,14.966l5.908-14.966h3.545L185.895,186.289z"/>
	<path style="fill:#F1543F;" d="M210.708,166.597v3.151h-10.634v5.12h9.452v3.151h-9.452v5.12h11.028v3.151h-14.178v-19.692
		L210.708,166.597L210.708,166.597z"/>
	<path style="fill:#F1543F;" d="M231.188,172.898c0,3.151-1.575,5.514-4.332,6.302l5.12,7.089h-4.332l-4.726-6.695h-4.332v6.695
		h-3.151v-19.692h7.483c3.151,0,5.12,0.394,6.302,1.575C230.4,168.96,231.188,170.535,231.188,172.898z M226.462,175.655
		c0.788-0.394,1.182-1.575,1.182-2.757s-0.394-2.363-1.182-2.757c-0.788-0.394-1.969-0.788-3.545-0.788h-4.332v7.089h4.332
		C224.492,176.837,226.068,176.443,226.462,175.655z"/>
	<path style="fill:#F1543F;" d="M243.397,186.289h-3.545v-7.877l-7.483-11.815h3.938l5.514,9.058l5.514-9.058h3.545l-7.483,11.815
		L243.397,186.289L243.397,186.289z"/>
</g>
<g>
	<path style="fill:#FFFFFF;" d="M125.243,168.172c1.969,1.575,2.757,3.938,2.757,7.089c0,3.151-0.788,5.514-2.757,7.483
		c-1.969,1.969-4.726,2.757-8.665,2.757h-6.302v-19.692h6.695C120.517,165.415,123.274,166.203,125.243,168.172z M124.849,175.262
		c0-4.726-2.757-6.695-7.877-6.695h-3.151v13.391h3.545c2.363,0,4.332-0.394,5.514-1.575
		C124.062,179.2,124.849,177.625,124.849,175.262z"/>
	<path style="fill:#FFFFFF;" d="M146.511,165.415v3.151h-10.634v5.12h9.452v3.151h-9.452v5.12h11.028v3.151h-14.178v-19.692H146.511
		z"/>
	<path style="fill:#FFFFFF;" d="M150.843,185.108v-19.692h3.151v16.542h9.058v3.151H150.843z"/>
	<path style="fill:#FFFFFF;" d="M166.991,165.415h3.151v19.692h-3.151V165.415z"/>
	<path style="fill:#FFFFFF;" d="M184.714,185.108h-3.545l-7.877-19.692h3.545l5.908,14.966l6.302-14.966h3.545L184.714,185.108z"/>
	<path style="fill:#FFFFFF;" d="M209.526,165.415v3.151h-10.634v5.12h9.452v3.151h-9.452v5.12h11.028v3.151h-14.178v-19.692H209.526
		z"/>
	<path style="fill:#FFFFFF;" d="M230.006,171.717c0,3.151-1.575,5.514-4.332,6.302l5.12,7.089h-4.332l-4.726-6.695h-4.332v6.695
		h-3.151v-19.692h7.483c3.151,0,5.12,0.394,6.302,1.575C229.218,168.172,230.006,169.748,230.006,171.717z M225.674,174.868
		c0.788-0.394,1.182-1.575,1.182-2.757c0-1.182-0.394-2.363-1.182-2.757s-1.969-0.788-3.545-0.788h-4.332v7.089h4.332
		C223.705,175.655,224.886,175.262,225.674,174.868z"/>
	<path style="fill:#FFFFFF;" d="M242.215,185.108h-3.545v-7.877l-7.483-11.815h3.545l5.514,9.058l5.514-9.058h3.545l-7.483,11.815
		v7.877H242.215z"/>
</g>
<g>
	<path style="fill:#324A5E;" d="M126.818,211.102v9.058h14.572v5.12h-14.572v13.391h-5.514v-32.689h21.662v5.12H126.818z"/>
	<path style="fill:#324A5E;" d="M175.655,216.615c0,5.514-2.363,8.665-7.089,10.24l8.665,11.815h-7.089l-7.877-11.028h-7.089v11.028
		h-5.514v-32.689h12.209c5.12,0,8.665,0.788,10.634,2.363C174.474,209.92,175.655,212.677,175.655,216.615z M168.172,220.948
		c1.182-0.788,1.575-2.363,1.575-4.726c0-1.969-0.394-3.545-1.575-4.332s-3.151-1.182-6.302-1.182h-7.089v11.815h6.695
		C165.022,222.523,167.385,222.129,168.172,220.948z"/>
	<path style="fill:#324A5E;" d="M206.375,205.982v5.12h-17.329v8.665H204.8v4.726h-15.754v8.665h18.117v5.12h-23.631v-32.689h22.843
		V205.982z"/>
	<path style="fill:#324A5E;" d="M237.095,205.982v5.12h-17.329v8.665h15.754v4.726h-15.754v8.665h18.117v5.12h-23.631v-32.689
		h22.843V205.982z"/>
</g>
</svg>