<?xml version="1.0" ?>
<!DOCTYPE svg  PUBLIC '-//W3C//DTD SVG 1.1//EN'  'http://www.w3.org/Graphics/SVG/1.1/DTD/svg11.dtd'>
<!-- Uploaded to: SVG Repo, www.svgrepo.com, Generator: SVG Repo Mixer Tools -->
<svg width="800px" height="800px" viewBox="0 0 1024 1024" enable-background="new 0 0 1024 1024" id="delivery-truck" version="1.1" xml:space="preserve" xmlns="http://www.w3.org/2000/svg" xmlns:xlink="http://www.w3.org/1999/xlink">
<g>
<g id="delivery-truck-label">
<rect fill="#F16750" height="1024" width="1024"/>
</g>
<g id="delivery-truck-delivery-truck">
<g>
<g>
<path d="M789.8799,709.46h-57.3194v-20.4795h57.3194c4.8799,0,8.8506-3.9805,8.8506-8.8701v-76.4102      c0-7.25-6.0303-17.6504-9.0108-18.4199c-0.5693,0-0.9697-0.0303-1.5195-0.1201l-57.3203-9.5606      c-3.3994-0.5693-6.2803-2.7998-7.6797-5.9394L685,483.7002c-0.5801-1.3096-0.8799-2.7305-0.8799-4.1602      c0-4.8896-3.9697-8.8603-8.8506-8.8603H541.54v-20.4795h133.7295c15.3701,0,28.0108,11.8896,29.2305,26.9502l35.1797,79.1601      l51.2002,8.5391c17.0703,0.8604,28.3301,23.6699,28.3301,38.8506v76.4102C819.21,696.29,806.0498,709.46,789.8799,709.46      L789.8799,709.46z" fill="#FFFFFF"/>
</g>
<g>
<path d="M274.0996,709.46h-38.1894c-16.1905,0-29.3604-13.17-29.3604-29.3496V555.9395h20.4805v124.1709      c0,4.8896,3.9795,8.8701,8.8799,8.8701h38.1894V709.46L274.0996,709.46z" fill="#FFFFFF"/>
</g>
<g>
<polygon fill="#FFFFFF" points="617.9502,709.46 388.73,709.46 388.73,688.9805 617.9502,688.9805 617.9502,709.46     "/>
</g>
<g>
<path d="M336.1797,757.2197c-34.6094,0-62.7598-28.1592-62.7598-62.7802      c0-34.6094,28.1504-62.7598,62.7598-62.7598c34.6201,0,62.79,28.1504,62.79,62.7598      C398.9697,729.0605,370.7998,757.2197,336.1797,757.2197L336.1797,757.2197z M336.1797,652.1602      c-23.3096,0-42.2798,18.9697-42.2798,42.2793c0,23.3203,18.9702,42.3007,42.2798,42.3007      c23.3301,0,42.3105-18.9803,42.3105-42.3007C378.4902,671.1299,359.5098,652.1602,336.1797,652.1602L336.1797,652.1602z" fill="#FFFFFF"/>
</g>
<g>
<path d="M670.4902,757.2197c-34.6201,0-62.7802-28.1592-62.7802-62.7802      c0-34.6094,28.1601-62.7598,62.7802-62.7598c34.6094,0,62.7696,28.1504,62.7696,62.7598      C733.2598,729.0605,705.0996,757.2197,670.4902,757.2197L670.4902,757.2197z M670.4902,652.1602      c-23.3203,0-42.3007,18.9697-42.3007,42.2793c0,23.3203,18.9803,42.3007,42.3007,42.3007s42.2901-18.9803,42.2901-42.3007      C712.7803,671.1299,693.8105,652.1602,670.4902,652.1602L670.4902,652.1602z" fill="#FFFFFF"/>
</g>
<g>
<polygon fill="#FFFFFF" points="799.4297,671.2598 742.1201,671.2598 742.1201,650.7803 799.4297,650.7803 799.4297,671.2598           "/>
</g>
<g>
<polygon fill="#FFFFFF" points="551.7803,689.6602 531.2998,689.6602 531.2998,460.4395 551.7803,460.4395 551.7803,689.6602           "/>
</g>
<g>
<polygon fill="#FFFFFF" points="608.4004,620.2998 579.73,620.2998 579.73,599.8203 608.4004,599.8203 608.4004,620.2998           "/>
</g>
<g>
<polygon fill="#FFFFFF" points="227.0303,603.7002 206.5498,603.7002 206.5498,393.5801 227.0303,393.5801 227.0303,603.7002           "/>
</g>
<g>
<path d="M551.7803,603.7002h-20.4805V393.5801c0-4.8902-3.9697-8.8604-8.8599-8.8604h-110.02v-20.4795h110.02      c16.1802,0,29.3404,13.1602,29.3404,29.3399V603.7002L551.7803,603.7002z" fill="#FFFFFF"/>
</g>
<g>
<polygon fill="#FFFFFF" points="512.8896,442.0195 389.5098,442.0195 389.5098,421.54 512.8896,421.54 512.8896,442.0195           "/>
</g>
<g>
<polygon fill="#FFFFFF" points="512.8896,518.4395 235.9102,518.4395 235.9102,497.96 512.8896,497.96 512.8896,518.4395           "/>
</g>
<g>
<polygon fill="#FFFFFF" points="512.8896,594.8398 235.9102,594.8398 235.9102,574.3604 512.8896,574.3604 512.8896,594.8398           "/>
</g>
<g>
<path d="M684.8203,586.3496H579.73c-10.8999,0-19.77-8.8799-19.77-19.7891v-57.3203      c0-10.9101,8.8701-19.79,19.77-19.79h76.4204c9.959,0,18.2295,7.3896,19.5996,16.9697l27.7695,55.5606      c0.711,1.4199,1.0801,2.9892,1.0801,4.58C704.5996,577.4697,695.7305,586.3496,684.8203,586.3496L684.8203,586.3496z       M655.4697,509.2402l-75.7397,0.6895l0.7099,56.6308l102.1304-0.6806l-26.0205-52.0596      C655.8398,512.4004,655.4697,510.8301,655.4697,509.2402L655.4697,509.2402z" fill="#FFFFFF"/>
</g>
</g>
<g>
<g>
<path d="M313.75,484.6602c-60.0703,0-108.9399-48.8702-108.9399-108.9405      c0-60.0693,48.8696-108.9394,108.9399-108.9394c60.0801,0,108.9502,48.8701,108.9502,108.9394      C422.7002,435.79,373.8301,484.6602,313.75,484.6602L313.75,484.6602z M313.75,287.2598c-48.7803,0-88.46,39.6801-88.46,88.4599      c0,48.7803,39.6797,88.46,88.46,88.46s88.4697-39.6797,88.4697-88.46C402.2197,326.9399,362.5303,287.2598,313.75,287.2598      L313.75,287.2598z" fill="#FFFFFF"/>
</g>
<g>
<polygon fill="#FFFFFF" points="370.1602,385.6401 303.3599,385.6401 303.3599,298.6001 323.8398,298.6001 323.8398,365.1602       370.1602,365.1602 370.1602,385.6401     "/>
</g>
</g>
</g>
</g>
</svg>