<?xml version="1.0" encoding="utf-8"?><!-- Uploaded to: SVG Repo, www.svgrepo.com, Generator: SVG Repo Mixer Tools -->
<svg fill="#000000" width="800px" height="800px" viewBox="0 0 24 24" id="down-arrow-circle" data-name="Flat Line" xmlns="http://www.w3.org/2000/svg" class="icon flat-line"><path id="secondary" d="M12,3a9,9,0,1,0,9,9A9,9,0,0,0,12,3Zm2.83,10.5-2.14,3.12a.82.82,0,0,1-1.38,0L9.17,13.5A1,1,0,0,1,9.86,12h4.28A1,1,0,0,1,14.83,13.5Z" style="fill: rgb(44, 169, 188); stroke-width: 2;"></path><path id="primary" d="M12,7v5m.69,4.63,2.14-3.13a1,1,0,0,0-.69-1.5H9.86a1,1,0,0,0-.69,1.5l2.14,3.12A.82.82,0,0,0,12.69,16.63ZM12,3a9,9,0,1,0,9,9A9,9,0,0,0,12,3Z" style="fill: none; stroke: rgb(0, 0, 0); stroke-linecap: round; stroke-linejoin: round; stroke-width: 2;"></path></svg>