<?xml version="1.0" encoding="utf-8"?><!-- Uploaded to: SVG Repo, www.svgrepo.com, Generator: SVG Repo Mixer Tools -->
<svg width="800px" height="800px" viewBox="0 0 32 32" fill="none" xmlns="http://www.w3.org/2000/svg">
<path d="M21 12C21 9.24 18.76 7 16 7C13.24 7 11 9.24 11 12C11 14.76 13.24 17 16 17C18.76 17 21 14.76 21 12ZM16 1C22.08 1 27 5.92 27 12C27 21 16 31 16 31C16 31 5 21 5 12C5 5.92 9.92 1 16 1Z" fill="#FFC44D"/>
<path d="M19 28C23 24 27 17.447 27 12C27 5.925 22.075 1 16 1C9.925 1 5 5.925 5 12C5 21 16 31 16 31M5 31H27M21 12C21 9.238 18.762 7 16 7C13.238 7 11 9.238 11 12C11 14.762 13.238 17 16 17C18.762 17 21 14.762 21 12Z" stroke="#000000" stroke-width="2" stroke-linecap="round" stroke-linejoin="round"/>
</svg>