<?xml version="1.0" encoding="utf-8"?>
<!-- Uploaded to: SVG Repo, www.svgrepo.com, Generator: SVG Repo Mixer Tools -->
<svg width="800px" height="800px" viewBox="0 -2.15 63.445 63.445" xmlns="http://www.w3.org/2000/svg">
  <g id="Shirt" transform="translate(-437.043 -152.754)">
    <g id="Group_65" data-name="Group 65">
      <path id="Path_48" data-name="Path 48" d="M482.821,211.908H454.459c-2.358,0-2.358-2.267-2.358-3.357l.737-34.586-5.014,4.5a1.75,1.75,0,0,1-2.3.07,7.643,7.643,0,0,1-1.289-1.1l-5.638-4.865c-.754-.75-2.37-2.368-1.054-3.686l7.42-7.42c.495-.6,5.068-5.909,12.263-5.909h4.363v2h-4.363c-6.512,0-10.7,5.151-10.738,5.2a.99.99,0,0,1-.074.084l-7.3,7.3a6.425,6.425,0,0,0,.834.957l5.639,4.866a7.06,7.06,0,0,0,1.03.9l6.6-5.93a1,1,0,0,1,1.668.766l-.786,36.872a3.8,3.8,0,0,0,.141,1.314.72.72,0,0,0,.217.021h28.362a.6.6,0,0,0,.226-.03,4.057,4.057,0,0,0,.131-1.327l-.786-36.85a1,1,0,0,1,1.668-.766l6.676,5.994,7.485-6.73-7.354-7.354c-.026-.026-.051-.054-.074-.082-.042-.053-4.257-5.205-10.739-5.205h-4.439v-2h4.439c7.2,0,11.768,5.308,12.263,5.909l7.42,7.42c1,1,1,1.636.008,2.628l-7.731,6.952a1.791,1.791,0,0,1-1.28.716,1.846,1.846,0,0,1-1.31-.745l-4.983-4.473.737,34.565C485.178,209.641,485.178,211.908,482.821,211.908Z" fill="#231f20"/>
    </g>
    <g id="Group_66" data-name="Group 66">
      <path id="Path_49" data-name="Path 49" d="M460.834,156.558" fill="none" stroke="#231f20" stroke-miterlimit="10" stroke-width="2"/>
    </g>
    <g id="Group_67" data-name="Group 67">
      <rect id="Rectangle_10" data-name="Rectangle 10" width="1" height="49.092" transform="translate(466.024 161.816)" fill="#231f20"/>
    </g>
    <g id="Group_68" data-name="Group 68">
      <rect id="Rectangle_11" data-name="Rectangle 11" width="1" height="49.092" transform="translate(470.107 161.816)" fill="#231f20"/>
    </g>
    <g id="Group_69" data-name="Group 69">
      <path id="Path_50" data-name="Path 50" d="M469.2,164.869a.635.635,0,1,1-.636-.636A.635.635,0,0,1,469.2,164.869Z" fill="#231f20"/>
    </g>
    <g id="Group_70" data-name="Group 70">
      <path id="Path_51" data-name="Path 51" d="M469.2,164.869a.635.635,0,1,1-.636-.636A.635.635,0,0,1,469.2,164.869Z" fill="#231f20"/>
    </g>
    <g id="Group_71" data-name="Group 71">
      <path id="Path_52" data-name="Path 52" d="M469.2,174.87a.635.635,0,1,1-.636-.636A.635.635,0,0,1,469.2,174.87Z" fill="#231f20"/>
    </g>
    <g id="Group_72" data-name="Group 72">
      <path id="Path_53" data-name="Path 53" d="M469.2,184.871a.635.635,0,1,1-.636-.636A.635.635,0,0,1,469.2,184.871Z" fill="#231f20"/>
    </g>
    <g id="Group_73" data-name="Group 73">
      <path id="Path_54" data-name="Path 54" d="M469.2,194.872a.635.635,0,1,1-.636-.636A.635.635,0,0,1,469.2,194.872Z" fill="#231f20"/>
    </g>
    <g id="Group_74" data-name="Group 74">
      <path id="Path_55" data-name="Path 55" d="M469.2,204.873a.635.635,0,1,1-.636-.636A.635.635,0,0,1,469.2,204.873Z" fill="#231f20"/>
    </g>
    <g id="Group_75" data-name="Group 75">
      <path id="Path_56" data-name="Path 56" d="M468.775,155.767c-2.472,0-4.357-.171-4.385-.174l.092-1a51.332,51.332,0,0,0,8.22,0l.093.995C471.415,155.723,470.021,155.767,468.775,155.767Z" fill="#231f20"/>
    </g>
    <g id="Group_76" data-name="Group 76">
      <path id="Path_57" data-name="Path 57" d="M468.694,153.968c-2.923,0-5.039-.214-5.07-.217l.1-1a56.363,56.363,0,0,0,9.735,0l.094,1C471.84,153.914,470.164,153.968,468.694,153.968Z" fill="#231f20"/>
    </g>
    <g id="Group_77" data-name="Group 77">
      <path id="Path_58" data-name="Path 58" d="M465.2,163.41a.5.5,0,0,1-.216-.049c-.11-.052-2.725-1.365-4.055-7.71a.5.5,0,0,1,.131-.45l2.226-2.295a.5.5,0,0,1,.847.238c.011.047,1.105,4.738,4.694,7.149a.5.5,0,0,1,0,.833l-3.348,2.2A.505.505,0,0,1,465.2,163.41Zm-3.237-7.705c1,4.523,2.644,6.15,3.237,6.606l2.47-1.624a13.8,13.8,0,0,1-4.269-6.463Z" fill="#231f20"/>
    </g>
    <g id="Group_78" data-name="Group 78">
      <path id="Path_59" data-name="Path 59" d="M471.919,163.41a.5.5,0,0,1-.274-.082l-3.348-2.2a.5.5,0,0,1,0-.832c3.589-2.411,4.684-7.1,4.694-7.149a.5.5,0,0,1,.847-.238l2.226,2.295a.5.5,0,0,1,.13.45c-1.329,6.345-3.944,7.658-4.055,7.71A.5.5,0,0,1,471.919,163.41Zm-2.469-2.723,2.469,1.624c.593-.456,2.241-2.083,3.237-6.606l-1.437-1.481A13.791,13.791,0,0,1,469.45,160.687Z" fill="#231f20"/>
    </g>
  </g>
</svg>