<?xml version="1.0" encoding="iso-8859-1"?>
<!-- Uploaded to: SVG Repo, www.svgrepo.com, Generator: SVG Repo Mixer Tools -->
<svg height="800px" width="800px" version="1.1" id="Layer_1" xmlns="http://www.w3.org/2000/svg" xmlns:xlink="http://www.w3.org/1999/xlink" 
	 viewBox="0 0 503.322 503.322" xml:space="preserve">
<g>
	<path style="fill:#955BA5;" d="M399.186,34.712C384.364,25.314,316.746,4.339,303.729,0c0,0,6.508,85.33-52.068,121.492
		C193.085,85.33,199.593,0,199.593,0c-13.017,4.339-80.636,25.314-95.458,34.712C89.314,44.11,49.464,109.559,43.39,156.203
		c0,0,26.034,34.712,69.424,34.712l17.356-52.068c0,0,34.712,70.508,34.712,138.847c0,0-34.712,134.873-34.712,208.271
		c0,0,75.568,17.356,121.492,17.356s121.492-17.356,121.492-17.356c0-73.398-34.712-208.271-34.712-208.271
		c0-68.339,34.712-138.847,34.712-138.847l17.356,52.068c43.39,0,69.424-34.712,69.424-34.712
		C453.858,109.559,414.008,44.11,399.186,34.712"/>
	<path style="fill:#6D407C;" d="M303.729,0c-14.466,0-33.627,8.678-52.068,8.678S214.059,0,199.593,0
		c0,0-6.508,85.33,52.068,121.492C310.237,85.33,303.729,0,303.729,0"/>
	<g>
		<path style="fill:#F0C419;" d="M260.339,181.998c0-19.17-15.542-34.712-34.712-34.712s-34.712,15.542-34.712,34.712
			s15.542,34.712,34.712,34.712S260.339,201.167,260.339,181.998"/>
		<path style="fill:#F0C419;" d="M190.915,390.269c0-23.457-18.64-42.435-41.897-43.242c-5.389,26.008-10.96,56.103-14.64,84.385
			c4.174,1.336,8.53,2.248,13.147,2.248C171.485,433.659,190.915,414.229,190.915,390.269"/>
		<path style="fill:#F0C419;" d="M260.339,468.371c0,12.462,3.332,24.133,9.077,34.243c45.325-3.237,103.736-16.644,103.736-16.644
			c0-21.903-3.098-49.273-7.437-76.904c-10.492-6.378-22.771-10.118-35.953-10.118C291.423,398.947,260.339,430.031,260.339,468.371
			"/>
		<path style="fill:#F0C419;" d="M338.441,277.695c0-20.046,3.02-40.222,7.246-58.802c-5.085-1.38-10.405-2.187-15.924-2.187
			c-33.549,0-60.746,27.197-60.746,60.746s27.197,60.746,60.746,60.746c7.697,0,15.03-1.484,21.808-4.096
			C344.515,301.299,338.441,277.695,338.441,277.695"/>
		<path style="fill:#F0C419;" d="M399.186,34.712c-2.412-1.527-6.309-3.376-11.047-5.398c-9.303,10.674-14.987,24.593-14.987,39.867
			c0,33.549,27.197,60.746,60.746,60.746c6.604,0,12.939-1.085,18.892-3.029C439.044,85.86,411.075,42.253,399.186,34.712"/>
		<path style="fill:#F0C419;" d="M115.181,29.315c-4.738,2.013-8.635,3.87-11.047,5.398c-11.889,7.541-39.849,51.148-53.595,92.186
			c5.944,1.944,12.288,3.029,18.883,3.029c33.549,0,60.746-27.197,60.746-60.746C130.168,53.908,124.492,39.989,115.181,29.315"/>
	</g>
</g>
</svg>