<?xml version="1.0" encoding="utf-8"?>
<!-- Uploaded to: SVG Repo, www.svgrepo.com, Generator: SVG Repo Mixer Tools -->
<svg width="800px" height="800px" viewBox="0 0 1024 1024" class="icon"  version="1.1" xmlns="http://www.w3.org/2000/svg"><path d="M235.12 504.88L200 856h-40l-48-352a237.92 237.92 0 0 1 123.12 0.88z" fill="#65676C" /><path d="M944 792s-48 64-208 64c-256 0-280-152-360-248-45.52-54.56-90.96-88.48-140.88-103.12A237.92 237.92 0 0 0 112 504a528 528 0 0 1-32-176c0-96 80-160 80-160 176 128 272 496 472 496 64 0 96-24 96-24 120 16 216 104 216 152z" fill="#CB525F" /><path d="M453.52 722.96C502.88 793.28 571.52 856 736 856c160 0 208-64 208-64a68.96 68.96 0 0 0-12.24-34.72c-109.92 63.84-318.64 51.52-478.24-34.32z" fill="#953745" /></svg>