<?xml version="1.0" encoding="iso-8859-1"?>
<!-- Uploaded to: SVG Repo, www.svgrepo.com, Generator: SVG Repo Mixer Tools -->
<svg height="800px" width="800px" version="1.1" id="Layer_1" xmlns="http://www.w3.org/2000/svg" xmlns:xlink="http://www.w3.org/1999/xlink" 
	 viewBox="0 0 512 512" xml:space="preserve">
<g transform="translate(0 1)">
	<g>
		<path style="fill:#FFE100;" d="M358.4,78.36c-5.973-11.093-9.387-23.04-9.387-34.987c0-19.627-18.773-35.84-40.96-35.84H296.96
			c17.067,0,30.72,16.213,30.72,35.84c0,11.947,2.56,23.893,6.827,34.987l6.827,14.507h25.6L358.4,78.36z"/>
		<path style="fill:#FFE100;" d="M327.68,466.627c0,19.627-13.653,35.84-30.72,35.84h11.093c23.04,0,40.96-16.213,40.96-35.84
			c0-11.947,3.413-23.893,9.387-34.987l8.533-14.507h-25.6l-5.973,14.507C330.24,442.733,327.68,454.68,327.68,466.627"/>
		<path style="fill:#FFE100;" d="M372.907,92.867h-25.6c20.48,0,36.693,16.213,36.693,36.693v250.88
			c0,20.48-16.213,36.693-36.693,36.693h25.6c20.48,0,36.693-16.213,36.693-36.693V129.56
			C409.6,109.08,393.387,92.867,372.907,92.867"/>
		<path style="fill:#FFE100;" d="M309.76,78.36l5.973,14.507h-153.6l5.973-14.507c5.12-11.093,6.827-23.04,6.827-34.987l0,0
			c0-19.627,13.653-35.84,30.72-35.84h65.707c17.067,0,30.72,16.213,30.72,35.84l0,0C302.08,55.32,304.64,67.267,309.76,78.36"/>
	</g>
	<path style="fill:#FFA800;" d="M332.8,78.36c-5.973-11.093-9.387-23.04-9.387-34.987c0-19.627-18.773-35.84-40.96-35.84H271.36
		c17.067,0,30.72,16.213,30.72,35.84c0,11.947,2.56,23.893,6.827,34.987l6.827,14.507h25.6L332.8,78.36z"/>
	<path style="fill:#FFFFFF;" d="M175.787,43.373c0-19.627,13.653-35.84,30.72-35.84h-11.093c-23.04,0-40.96,16.213-40.96,35.84
		c0,11.947-3.413,23.893-9.387,34.987l-8.533,14.507h25.6l5.973-14.507C173.227,67.267,175.787,55.32,175.787,43.373"/>
	<path style="fill:#FFE100;" d="M168.107,431.64l-5.973-14.507h153.6l-5.973,14.507c-5.12,11.093-6.827,23.04-6.827,34.987l0,0
		c0,19.627-13.653,35.84-30.72,35.84h-65.707c-17.067,0-30.72-16.213-30.72-35.84l0,0
		C175.787,454.68,173.227,442.733,168.107,431.64"/>
	<path style="fill:#FFFFFF;" d="M145.067,431.64c5.973,11.093,9.387,23.04,9.387,34.987c0,19.627,18.773,35.84,40.96,35.84h11.093
		c-17.067,0-30.72-16.213-30.72-35.84c0-11.947-2.56-23.893-6.827-34.987l-6.827-14.507h-25.6L145.067,431.64z"/>
	<path style="fill:#FFA800;" d="M302.08,466.627c0,19.627-13.653,35.84-30.72,35.84h11.093c23.04,0,40.96-16.213,40.96-35.84
		c0-11.947,3.413-23.893,9.387-34.987l8.533-14.507h-25.6l-5.973,14.507C304.64,442.733,302.08,454.68,302.08,466.627"/>
	<path style="fill:#FDCC00;" d="M405.333,289.133H384v-68.267h21.333c6.827,0,12.8,5.973,12.8,12.8v42.667
		C418.133,283.16,412.16,289.133,405.333,289.133"/>
	<path style="fill:#63D3FD;" d="M321.707,417.133H156.16c-20.48,0-36.693-16.213-36.693-36.693V129.56
		c0-20.48,16.213-36.693,36.693-36.693h165.547c20.48,0,36.693,16.213,36.693,36.693v250.88
		C358.4,400.92,342.187,417.133,321.707,417.133"/>
	<path style="fill:#FFFFFF;" d="M119.467,380.44V129.56c0-20.48,16.213-36.693,36.693-36.693h-25.6
		c-20.48,0-36.693,16.213-36.693,36.693v250.88c0,20.48,16.213,36.693,36.693,36.693h25.6
		C135.68,417.133,119.467,400.92,119.467,380.44"/>
	<path style="fill:#3DB9F9;" d="M347.307,92.867h-25.6c20.48,0,36.693,16.213,36.693,36.693v250.88
		c0,20.48-16.213,36.693-36.693,36.693h25.6c20.48,0,36.693-16.213,36.693-36.693V129.56C384,109.08,367.787,92.867,347.307,92.867"
		/>
	<path d="M347.307,425.667H130.56c-24.747,0-45.227-20.48-45.227-45.227V237.933c0-5.12,3.413-8.533,8.533-8.533
		s8.533,3.413,8.533,8.533V380.44c0,15.36,12.8,28.16,28.16,28.16h216.747c15.36,0,28.16-12.8,28.16-28.16V129.56
		c0-15.36-12.8-28.16-28.16-28.16H130.56c-15.36,0-28.16,12.8-28.16,28.16v40.107c0,5.12-3.413,8.533-8.533,8.533
		c-5.12,0-8.533-3.413-8.533-8.533V129.56c0-24.747,20.48-45.227,45.227-45.227h216.747c24.747,0,45.227,20.48,45.227,45.227v250.88
		C392.533,405.187,372.053,425.667,347.307,425.667z"/>
	<path d="M102.4,203.8c0-5.12-3.413-8.533-8.533-8.533c-5.12,0-8.533,3.413-8.533,8.533c0,5.12,3.413,8.533,8.533,8.533
		S102.4,208.92,102.4,203.8"/>
	<path d="M355.84,101.4H122.027l15.36-27.307c5.12-9.387,8.533-20.48,8.533-30.72C145.92,18.627,168.107-1,195.413-1h87.04
		c27.307,0,49.493,19.627,49.493,44.373c0,10.24,2.56,21.333,8.533,30.72L355.84,101.4z M151.04,84.333h174.933l-0.853-1.707
		c-6.827-11.947-10.24-25.6-10.24-39.253c0-15.36-14.507-27.307-32.427-27.307h-87.04c-17.92,0-32.427,11.947-32.427,27.307
		c0,13.653-3.413,27.307-10.24,39.253L151.04,84.333z"/>
	<path d="M282.453,511h-87.04c-27.307,0-49.493-19.627-49.493-44.373c0-10.24-2.56-21.333-8.533-30.72l-15.36-27.307h234.667
		l-15.36,27.307c-5.12,9.387-8.533,20.48-8.533,30.72C331.947,491.373,309.76,511,282.453,511z M151.893,427.373
		c6.827,11.947,10.24,25.6,10.24,39.253c0,15.36,14.507,27.307,32.427,27.307h87.04c17.92,0,32.427-11.947,32.427-27.307
		c0-13.653,3.413-27.307,10.24-39.253l0.853-1.707H151.04L151.893,427.373z"/>
	<path d="M405.333,297.667h-29.867v-85.333h29.867c11.947,0,21.333,9.387,21.333,21.333v42.667
		C426.667,288.28,417.28,297.667,405.333,297.667z M392.533,280.6h12.8c2.56,0,4.267-1.707,4.267-4.267v-42.667
		c0-2.56-1.707-4.267-4.267-4.267h-12.8V280.6z"/>
	<path d="M196.267,383c-0.853,0-0.853,0-1.707,0c-3.413-0.853-5.973-2.56-6.827-5.973l-20.48-75.947l-23.893,35.84
		c-1.707,1.707-4.267,3.413-6.827,3.413h-17.067c-5.12,0-8.533-3.413-8.533-8.533s3.413-8.533,8.533-8.533h12.8l31.573-47.787
		c1.707-2.56,5.12-4.267,8.533-3.413s5.973,2.56,6.827,5.973l20.48,75.947l23.893-35.84c1.707-2.56,4.267-3.413,6.827-3.413h20.48
		l23.04-38.4c1.707-2.56,5.12-4.267,8.533-4.267c3.413,0.853,5.973,2.56,6.827,5.973l19.627,72.533L324.267,319
		c1.707-2.56,4.267-5.12,7.68-5.12h17.067c5.12,0,8.533,3.413,8.533,8.533s-3.413,8.533-8.533,8.533h-11.947l-23.04,46.08
		c-1.707,3.413-5.12,5.12-8.533,4.267c-3.413,0-6.827-2.56-7.68-5.973l-20.48-74.24l-15.36,25.6c0,3.413-3.413,5.12-5.973,5.12
		h-21.333l-31.573,47.787C201.387,381.293,198.827,383,196.267,383z"/>
	<path d="M298.667,152.6H179.2c-5.12,0-8.533-3.413-8.533-8.533c0-5.12,3.413-8.533,8.533-8.533h119.467
		c5.12,0,8.533,3.413,8.533,8.533C307.2,149.187,302.933,152.6,298.667,152.6z"/>
	<path d="M298.667,186.733h-25.6c-5.12,0-8.533-3.413-8.533-8.533c0-5.12,3.413-8.533,8.533-8.533h25.6
		c5.12,0,8.533,3.413,8.533,8.533C307.2,183.32,302.933,186.733,298.667,186.733z"/>
	<path d="M238.933,186.733H179.2c-5.12,0-8.533-3.413-8.533-8.533c0-5.12,3.413-8.533,8.533-8.533h59.733
		c5.12,0,8.533,3.413,8.533,8.533C247.467,183.32,243.2,186.733,238.933,186.733z"/>
	<path d="M298.667,220.867h-51.2c-5.12,0-8.533-3.413-8.533-8.533c0-5.12,3.413-8.533,8.533-8.533h51.2
		c5.12,0,8.533,3.413,8.533,8.533C307.2,217.453,302.933,220.867,298.667,220.867z"/>
	<path d="M213.333,220.867H179.2c-5.12,0-8.533-3.413-8.533-8.533c0-5.12,3.413-8.533,8.533-8.533h34.133
		c5.12,0,8.533,3.413,8.533,8.533C221.867,217.453,217.6,220.867,213.333,220.867z"/>
</g>
</svg>