<svg xmlns="http://www.w3.org/2000/svg" viewBox="0 0 287.11 182.8"><title>Asset 152</title><g id="Layer_2" data-name="Layer 2"><g id="Layer_2-2" data-name="Layer 2"><path d="M45,112.12a114.94,114.94,0,0,1-5.32-16.4c-2.94-12.47-3-26.32,2.48-38.13C47.51,46.05,58.27,37.8,68.65,30.8A133.21,133.21,0,0,1,142.19,8c2.34,0,4.69.05,7,.18a132.55,132.55,0,0,1,98.35,53.3c10.78,14.73,18.52,32.18,19.19,50.42.74,20-7.53,40.28-22.57,53.45s-36.66,18.68-56,13.55c-20.17-5.36-38.13-21.5-58.86-19.14-15.79,1.8-30.5,14.36-45.86,10.3-6.81-1.8-12.43-6.75-16.52-12.48s-6.86-12.27-9.79-18.67C53.1,130,48.63,121.2,45,112.12Z" fill="#ffd101" stroke="#f2f2f2" stroke-miterlimit="10" stroke-width="4"/><polygon points="268.97 120.94 266.95 129 274.01 129 273 122.95 268.97 120.94" fill="#991a1a"/><polygon points="146.02 1.01 144 5.04 152.06 5.04 146.02 1.01 146.02 1.01" fill="#991a1a"/><polygon points="146.02 1.01 190.36 0 287.11 96.75 274.01 129 146.02 1.01" fill="#fd0204"/><circle cx="44" cy="112" r="42" fill="#fd0204" stroke="#f2f2f2" stroke-miterlimit="10" stroke-width="4"/><path d="M90.59,82a13.83,13.83,0,0,1-4-1.55l2.74-5.25a14.06,14.06,0,0,0,7.12,2,5.15,5.15,0,0,0,2.08-.33c.49-.22.73-.52.73-.91s-.25-.65-.74-.87a14.67,14.67,0,0,0-2.34-.72,28.84,28.84,0,0,1-3.5-1.11,6.57,6.57,0,0,1-2.43-1.71,4.46,4.46,0,0,1-1-3.07,7,7,0,0,1,1.28-4.18,8.23,8.23,0,0,1,3.7-2.77,15,15,0,0,1,5.7-1,19.65,19.65,0,0,1,4.39.46,12.36,12.36,0,0,1,3.52,1.35l-2.57,5.18a9.55,9.55,0,0,0-2.73-1.17,12,12,0,0,0-3.06-.39,5.06,5.06,0,0,0-2.29.42c-.55.28-.82.61-.82,1s.25.68.74.9a14.44,14.44,0,0,0,2.43.72A27.77,27.77,0,0,1,103,70a6.21,6.21,0,0,1,2.43,1.69,4.34,4.34,0,0,1,1,3,6.77,6.77,0,0,1-1.3,4.13,8.24,8.24,0,0,1-3.71,2.76,14.89,14.89,0,0,1-5.67,1A21.35,21.35,0,0,1,90.59,82Z" fill="#232222"/><path d="M112.93,81.6a7.15,7.15,0,0,1-3.17-2.7,7.55,7.55,0,0,1-1.1-4.1,12.05,12.05,0,0,1,.24-2.23L111.23,61h7.12l-2.3,11.49a7.52,7.52,0,0,0-.18,1.54,2.84,2.84,0,0,0,.73,2.12,2.93,2.93,0,0,0,2.11.69,3,3,0,0,0,2.44-1,7.3,7.3,0,0,0,1.36-3.35L124.81,61h7l-2.38,11.92a12.28,12.28,0,0,1-3.86,7.24,13.33,13.33,0,0,1-12.63,1.49Z" fill="#232222"/><path d="M151,62.79A6.24,6.24,0,0,1,153.32,68,8.45,8.45,0,0,1,152,72.63a8.71,8.71,0,0,1-3.74,3.13,13.28,13.28,0,0,1-5.63,1.12H139l-1,5.19h-7.12L135.06,61h9.39A10.31,10.31,0,0,1,151,62.79Zm-5.71,7.86a2.62,2.62,0,0,0,.82-2.07c0-1.42-.89-2.14-2.66-2.14h-2.38l-1,5H143A3.28,3.28,0,0,0,145.29,70.65Z" fill="#232222"/><path d="M163.1,66.32l-.49,2.48h8.93l-1,5.12h-9L161,76.7H171.6l-1.08,5.37H153L157.18,61h17.17l-1.09,5.37Z" fill="#232222"/><path d="M194.25,72.79A8.82,8.82,0,0,1,190,75.91l3.53,6.16h-7.39l-3-5.31h-1.75l-1.06,5.31h-7.12L177.49,61H187a10.21,10.21,0,0,1,6.47,1.82,6.17,6.17,0,0,1,2.31,5.12A8.2,8.2,0,0,1,194.25,72.79Zm-8.37-6.35h-2.39l-1,5h2.92a3.33,3.33,0,0,0,2.3-.74,2.65,2.65,0,0,0,.81-2.07C188.53,67.16,187.64,66.44,185.88,66.44Z" fill="#232222"/><path d="M122.39,115.35a15.12,15.12,0,0,1-4.39-1.71l3-5.78a15.54,15.54,0,0,0,7.85,2.16,5.56,5.56,0,0,0,2.29-.37c.53-.24.8-.57.8-1s-.27-.71-.82-1a16.83,16.83,0,0,0-2.57-.8,30.48,30.48,0,0,1-3.86-1.21,7.1,7.1,0,0,1-2.67-1.89,4.86,4.86,0,0,1-1.15-3.38,7.72,7.72,0,0,1,1.41-4.6,9.05,9.05,0,0,1,4.07-3.06,16.7,16.7,0,0,1,6.29-1.07,21.75,21.75,0,0,1,4.83.51,13.35,13.35,0,0,1,3.87,1.48l-2.82,5.71a10.82,10.82,0,0,0-3-1.29,13.14,13.14,0,0,0-3.37-.43,5.6,5.6,0,0,0-2.53.46c-.6.31-.9.68-.9,1.1s.27.75.82,1a16.6,16.6,0,0,0,2.67.79,29.93,29.93,0,0,1,3.81,1.13A6.87,6.87,0,0,1,138.7,104a4.79,4.79,0,0,1,1.13,3.33,7.49,7.49,0,0,1-1.43,4.55,9.12,9.12,0,0,1-4.08,3,16.59,16.59,0,0,1-6.25,1.08A24,24,0,0,1,122.39,115.35Z" fill="#232222"/><path d="M157.61,111.41h-8.87l-2.33,4.06h-8.27L153,92.21h7.71l5.52,23.26h-7.81Zm-1.09-5.64-1.13-6-3.43,6Z" fill="#232222"/><path d="M172.1,92.21H180l-3.43,17.18H187l-1.22,6.08H167.45Z" fill="#232222"/><path d="M199.12,98.12l-.53,2.73h9.84l-1.13,5.65h-9.88l-.59,3h11.66l-1.19,5.92H188l4.66-23.26h18.9l-1.19,5.91Z" fill="#232222"/><path d="M211.15,114.74a3.36,3.36,0,0,1-1.16-2.6,4,4,0,0,1,1.31-3,4.71,4.71,0,0,1,3.31-1.2,4.38,4.38,0,0,1,3,1,3.3,3.3,0,0,1,1.16,2.56,4.06,4.06,0,0,1-1.33,3.08,4.61,4.61,0,0,1-3.29,1.24A4.26,4.26,0,0,1,211.15,114.74Zm2.66-22.53h9l-4.35,14.35h-6Z" fill="#232222"/><path d="M187.16,9.21l4.9,4.85a9.93,9.93,0,0,1,2.4,3.48A6,6,0,0,1,194.8,21,6.25,6.25,0,0,1,193,24.14a8.61,8.61,0,0,1-4.13,2.43,8,8,0,0,1-4.57-.2,10.85,10.85,0,0,1-4.27-2.7l-5.81-5.75ZM183,20.94a3.87,3.87,0,0,0,3.07,1.28,4.76,4.76,0,0,0,3-1.51,2.62,2.62,0,0,0,.86-2,3.44,3.44,0,0,0-1.18-2.17l-1.39-1.38-6.12,4.13Z" fill="#fff"/><path d="M200,21.88l3.66,3.62-12.91,8.7-3.66-3.62Z" fill="#fff"/><path d="M194.2,37.54a10,10,0,0,1-1.26-2.82L197,33.41A10.18,10.18,0,0,0,199.69,38a3.65,3.65,0,0,0,1.23.89.75.75,0,0,0,.84-.1.73.73,0,0,0,.06-.82,10.4,10.4,0,0,0-.83-1.56,20.6,20.6,0,0,1-1.24-2.35,4.73,4.73,0,0,1-.38-2.12,3.18,3.18,0,0,1,1-2.1,5.07,5.07,0,0,1,2.78-1.5,6,6,0,0,1,3.31.46,11,11,0,0,1,3.43,2.39,14.6,14.6,0,0,1,2,2.47,8.84,8.84,0,0,1,1.12,2.48l-4,1.36a6.76,6.76,0,0,0-.8-2,9,9,0,0,0-1.37-1.76,3.85,3.85,0,0,0-1.4-.95.88.88,0,0,0-.92.1.73.73,0,0,0-.08.84,10,10,0,0,0,.88,1.61,19.6,19.6,0,0,1,1.25,2.28,4.42,4.42,0,0,1,.39,2.1,3.16,3.16,0,0,1-1,2.08,5,5,0,0,1-2.76,1.46,6,6,0,0,1-3.31-.47,10.78,10.78,0,0,1-3.42-2.38A15.76,15.76,0,0,1,194.2,37.54Z" fill="#fff"/><path d="M206.28,48.88A6.37,6.37,0,0,1,207.83,42a9.15,9.15,0,0,1,4.21-2.5,8.68,8.68,0,0,1,4.71.11,10.48,10.48,0,0,1,4.36,2.67,9.31,9.31,0,0,1,2.22,3.32,5.49,5.49,0,0,1,.21,3.38l-4.68-.55A3.29,3.29,0,0,0,218,45,3.88,3.88,0,0,0,216,44a4,4,0,0,0-2.2.14,5.52,5.52,0,0,0-2.07,1.35,2.85,2.85,0,0,0-.91,2.15,3.11,3.11,0,0,0,1,2.18,4.31,4.31,0,0,0,3.66,1.14l.11,4.19a7.72,7.72,0,0,1-3.79-.46,10.31,10.31,0,0,1-3.27-2.26A9.27,9.27,0,0,1,206.28,48.88Z" fill="#fff"/><path d="M217.54,60a6.32,6.32,0,0,1-.23-3.61,6.62,6.62,0,0,1,1.82-3.2,9.13,9.13,0,0,1,4.22-2.5,8.48,8.48,0,0,1,4.71.1,10.52,10.52,0,0,1,4.34,2.67A9.25,9.25,0,0,1,234.7,57a6.49,6.49,0,0,1,.23,3.61,6.72,6.72,0,0,1-1.83,3.2,9.15,9.15,0,0,1-4.21,2.5,8.48,8.48,0,0,1-4.71-.1,10.45,10.45,0,0,1-4.34-2.67A9.09,9.09,0,0,1,217.54,60ZM225,61.89a4,4,0,0,0,2.18-.24,5.68,5.68,0,0,0,2-1.32,2.77,2.77,0,0,0,0-4.21,3.59,3.59,0,0,0-2-1,4,4,0,0,0-2.18.23,5.69,5.69,0,0,0-2,1.32,2.77,2.77,0,0,0,0,4.21A3.62,3.62,0,0,0,225,61.89Z" fill="#fff"/><path d="M230.31,72.89a5.16,5.16,0,0,1-.25-3,5.38,5.38,0,0,1,1.52-2.67,8.51,8.51,0,0,1,1.26-1l7.09-4.78L243.59,65l-7,4.74a5,5,0,0,0-.87.69,2.06,2.06,0,0,0-.71,1.46,2.15,2.15,0,0,0,.74,1.43,2.24,2.24,0,0,0,1.76.73,5.42,5.42,0,0,0,2.4-1l7-4.74,3.6,3.56-7.29,4.91a8.84,8.84,0,0,1-5.66,1.75,8.32,8.32,0,0,1-5.21-2.67A8.46,8.46,0,0,1,230.31,72.89Z" fill="#fff"/><path d="M262.88,84.11,250,92.82l-3-3,1.89-8.13-6,4.05-3.56-3.52,12.9-8.71,3,3-1.88,8.13,6-4Z" fill="#fff"/><path d="M263.62,90.46l-3.18-3.14,3.38-2.27,10,9.91-3.38,2.27-3.18-3.15-9.53,6.44L254.1,96.9Z" fill="#fff"/><path d="M24.7,124.06a6.28,6.28,0,0,1-4.54,1.79,6.26,6.26,0,0,1-4.54-1.79,6.35,6.35,0,0,1,0-8.94,6.22,6.22,0,0,1,4.54-1.79,6.24,6.24,0,0,1,4.54,1.79,6.37,6.37,0,0,1,0,8.94Zm-1.5-7.58a4.25,4.25,0,0,0-6.08,0,4.52,4.52,0,0,0,0,6.22,4.25,4.25,0,0,0,6.08,0,4.52,4.52,0,0,0,0-6.22Z" fill="#fff"/><path d="M31.16,115.53v3.32h5.37v1.89H31.16v5H29.11V113.62h8.07v1.91Z" fill="#fff"/><path d="M41.62,115.53v3.32H47v1.89H41.62v5h-2V113.62h8.08l0,1.91Z" fill="#fff"/><path d="M58.54,113.62v1.92H52.08v3.21h5.8v1.82h-5.8v3.24h6.67v1.92H50V113.62Z" fill="#fff"/><path d="M71,117.55a3.52,3.52,0,0,1-2.62,3.78l3.17,4.4H69l-2.9-4.07H63.41v4.07h-2V113.62h4.51a6.49,6.49,0,0,1,4,.94A3.58,3.58,0,0,1,71,117.55Zm-2.72,1.72a2.16,2.16,0,0,0,.62-1.73,1.82,1.82,0,0,0-.64-1.62,4.17,4.17,0,0,0-2.28-.45h-2.6v4.33H66A3.74,3.74,0,0,0,68.31,119.27Z" fill="#fff"/><path d="M30.74,94.35V110H27.1l-6.89-8.32V110H15.89V94.35h3.63l6.89,8.32V94.35Z" fill="#fff"/><path d="M46.4,106.55V110H33.86V94.35H46.11v3.41H38.23v2.63h6.94v3.3H38.23v2.86Z" fill="#fff"/><path d="M73.12,94.35,68.05,110H63.33l-3-9.5L57.21,110H52.49L47.42,94.35H52l3.15,10,3.3-10h4.06l3.14,10.05L68.9,94.35Z" fill="#fff"/></g></g></svg>