<?xml version="1.0" encoding="utf-8"?>
<!-- Uploaded to: SVG Repo, www.svgrepo.com, Generator: SVG Repo Mixer Tools -->
<svg width="800px" height="800px" viewBox="-24 0 256 256" xmlns="http://www.w3.org/2000/svg" xmlns:xlink="http://www.w3.org/1999/xlink" preserveAspectRatio="xMidYMid">
  <defs>
    <style>

      .cls-3 {
        fill: #4cebc0;
      }

      .cls-4 {
        fill: #00e2a5;
      }

      .cls-5 {
        fill: #ffffff;
      }

      .cls-6 {
        fill: url(#linear-gradient-1);
      }
    </style>

    <linearGradient id="linear-gradient-1" gradientUnits="userSpaceOnUse" x1="90" y1="170.563" x2="90" y2="90.375">
      <stop offset="0" stop-color="#ff1642"/>
      <stop offset="1" stop-color="#ff6316"/>
    </linearGradient>
  </defs>
  <g id="watch">
    <path d="M36.156,16.000 C38.727,7.163 43.434,-0.000 60.156,-0.000 C60.156,-0.000 120.844,-0.000 120.844,-0.000 C137.566,-0.000 142.272,7.163 144.844,16.000 C144.844,16.000 148.577,28.000 148.577,28.000 C148.577,28.000 32.422,28.000 32.422,28.000 C32.422,28.000 36.156,16.000 36.156,16.000 ZM144.844,240.000 C142.272,248.836 137.566,256.000 120.844,256.000 C120.844,256.000 60.156,256.000 60.156,256.000 C43.434,256.000 38.727,248.836 36.156,240.000 C36.156,240.000 32.422,228.000 32.422,228.000 C32.422,228.000 148.577,228.000 148.577,228.000 C148.577,228.000 144.844,240.000 144.844,240.000 Z" id="path-1" class="cls-3" fill-rule="evenodd"/>
    <path d="M32.000,28.000 C32.000,28.000 148.000,28.000 148.000,28.000 C165.673,28.000 180.000,42.327 180.000,60.000 C180.000,60.000 180.000,196.000 180.000,196.000 C180.000,213.673 165.673,228.000 148.000,228.000 C148.000,228.000 32.000,228.000 32.000,228.000 C14.327,228.000 -0.000,213.673 -0.000,196.000 C-0.000,196.000 -0.000,60.000 -0.000,60.000 C-0.000,42.327 14.327,28.000 32.000,28.000 Z" id="path-2" class="cls-4" fill-rule="evenodd"/>
    <path d="M37.000,45.000 C37.000,45.000 143.000,45.000 143.000,45.000 C154.046,45.000 163.000,53.954 163.000,65.000 C163.000,65.000 163.000,191.000 163.000,191.000 C163.000,202.046 154.046,211.000 143.000,211.000 C143.000,211.000 37.000,211.000 37.000,211.000 C25.954,211.000 17.000,202.046 17.000,191.000 C17.000,191.000 17.000,65.000 17.000,65.000 C17.000,53.954 25.954,45.000 37.000,45.000 Z" id="path-3" class="cls-5" fill-rule="evenodd"/>
    <path d="M120.750,152.617 C112.735,159.201 94.062,170.567 90.000,170.567 C85.937,170.567 67.265,159.201 59.250,152.617 C51.909,146.587 39.000,133.117 39.000,118.117 C39.000,103.117 51.424,90.367 66.750,90.367 C76.493,90.367 85.049,95.398 90.000,102.993 C94.951,95.398 103.507,90.367 113.250,90.367 C128.576,90.367 141.000,103.117 141.000,118.117 C141.000,133.117 128.090,146.587 120.750,152.617 Z" id="path-4" class="cls-6" fill-rule="evenodd"/>
    <path d="M188.000,108.000 C188.000,108.000 200.000,108.000 200.000,108.000 C204.418,108.000 208.000,111.582 208.000,116.000 C208.000,116.000 208.000,140.000 208.000,140.000 C208.000,144.418 204.418,148.000 200.000,148.000 C200.000,148.000 188.000,148.000 188.000,148.000 C188.000,148.000 188.000,108.000 188.000,108.000 Z" id="path-5" class="cls-3" fill-rule="evenodd"/>
  </g>
</svg>