<?xml version="1.0" encoding="iso-8859-1"?>
<!-- Uploaded to: SVG Repo, www.svgrepo.com, Generator: SVG Repo Mixer Tools -->
<svg height="800px" width="800px" version="1.1" id="Layer_1" xmlns="http://www.w3.org/2000/svg" xmlns:xlink="http://www.w3.org/1999/xlink" 
	 viewBox="0 0 512 512" xml:space="preserve">
<g transform="translate(1 1)">
	<path style="fill:#FDCC00;" d="M33.133,502.467l30.72-123.733c-19.627-38.4-30.72-81.067-30.72-125.44
		c0-134.827,99.84-245.76,221.013-245.76c122.027,0,222.72,110.933,222.72,245.76s-100.693,249.173-222.72,249.173
		c-37.547,0-75.093-13.653-107.52-34.133L33.133,502.467z"/>
	<path style="fill:#FFFFFF;" d="M34.84,494.787L63.853,377.88c-19.627-37.547-30.72-80.213-30.72-124.587
		c0-134.827,99.84-245.76,221.013-245.76l0,0c-135.68,0-246.613,110.933-246.613,245.76c0,44.373,11.947,87.04,34.133,125.44
		L7.533,502.467L34.84,494.787z"/>
	<path style="fill:#FFA800;" d="M255,7.533c121.173,0.853,221.867,110.933,221.867,245.76c0,135.68-100.693,248.32-221.867,249.173
		c135.68-0.853,247.467-113.493,247.467-248.32C502.467,118.467,390.68,8.387,255,7.533"/>
	<path style="fill:#FDCC00;" d="M146.627,468.333l-7.68,2.56c35.84,18.773,75.093,31.573,116.053,31.573l0,0
		C216.6,502.467,179.053,488.813,146.627,468.333"/>
	<path style="fill:#FFE100;" d="M140.653,423.96l7.68,4.267C179.907,447.853,216.6,459.8,229.4,459.8
		c111.787,0,204.8-93.013,204.8-206.507S350.573,50.2,237.933,50.2c-89.6,0-187.733,90.453-187.733,203.093
		c0,39.253,11.093,77.653,31.573,110.08l5.12,7.68l-19.627,71.68L140.653,423.96z"/>
	<path style="fill:#FFA800;" d="M254.147,50.2c-2.56,0-5.12,0-8.533,0C354.84,54.467,434.2,144.067,434.2,253.293
		c0,108.373-85.333,198.827-192,205.653c4.267,0,8.533,0.853,11.947,0.853c112.64,0,205.653-93.013,205.653-206.507
		S366.787,50.2,254.147,50.2"/>
	<path style="fill:#63D3FD;" d="M188.44,138.947l-16.213-0.853c-5.12,0-10.24,1.707-13.653,5.12
		c-7.68,6.827-20.48,19.627-23.893,36.693c-5.973,25.6,3.413,56.32,25.6,87.04s64.853,80.213,139.947,101.547
		c23.893,6.827,42.667,2.56,58.027-6.827c11.947-7.68,19.627-19.627,22.187-32.427l2.56-11.947c0.853-3.413-0.853-7.68-4.267-9.387
		l-53.76-24.747c-3.413-1.707-7.68-0.853-10.24,2.56L293.4,313.027c-1.707,1.707-4.267,2.56-6.827,1.707
		c-14.507-5.12-63.147-25.6-89.6-76.8c-0.853-2.56-0.853-5.12,0.853-6.827l20.48-23.04c1.707-2.56,2.56-5.973,1.707-8.533
		l-24.747-55.467C194.413,141.507,191.853,138.947,188.44,138.947"/>
	<path d="M7.533,511c-2.56,0-4.267-0.853-5.973-2.56C-1,505.88-1,503.32-1,499.907l34.133-120.32
		C10.947,340.333-1,297.667-1,253.293c0-56.32,17.92-110.08,52.907-155.307c2.56-3.413,8.533-4.267,11.947-1.707
		c3.413,2.56,4.267,8.533,1.707,11.947c-32.427,42.667-49.493,93.013-49.493,145.067c0,41.813,11.947,83.627,33.28,120.32
		c0.853,2.56,1.707,5.12,0.853,6.827L19.48,490.52l112.64-30.72c2.56-0.853,4.267,0,5.973,0.853
		c38.4,21.333,78.507,33.28,116.053,33.28c129.707,0,239.787-110.08,239.787-240.64S386.413,16.067,254.147,16.067
		c-50.347,0-98.133,15.36-139.093,45.227c-3.413,2.56-9.387,1.707-11.947-1.707c-2.56-4.267-1.707-9.387,1.707-11.947
		C148.333,16.067,200.387-1,254.147-1C395.8-1,511,113.347,511,253.293S393.24,511,254.147,511
		c-39.253,0-81.067-11.947-121.173-33.28L10.093,511C9.24,511,8.387,511,7.533,511z"/>
	<path d="M88.6,78.36c0-5.12-3.413-8.533-8.533-8.533s-8.533,3.413-8.533,8.533c0,5.12,3.413,8.533,8.533,8.533
		S88.6,82.627,88.6,78.36"/>
	<path d="M254.147,468.333c-37.547,0-75.947-11.093-110.933-32.427l-4.267-2.56L55.32,454.68l23.04-81.067l-3.413-4.267
		c-21.333-34.987-33.28-74.24-33.28-116.053c0-116.907,95.573-211.627,212.48-211.627c117.76,0,214.187,94.72,214.187,211.627
		C468.333,371.907,371.907,468.333,254.147,468.333z M141.507,414.573l10.24,6.827c32.427,19.627,67.413,30.72,101.547,30.72
		c109.227-0.853,197.973-89.6,197.973-198.827c0-106.667-88.747-194.56-197.12-194.56c-107.52,0-195.413,87.893-195.413,194.56
		c0,37.547,10.24,74.24,30.72,105.813L96.28,370.2l-17.067,59.733L141.507,414.573z"/>
	<path id="SVGCleanerId_0" d="M322.413,380.44c-7.68,0-16.213-0.853-24.747-3.413c-85.333-23.893-129.707-84.48-144.213-104.96
		c-23.893-32.427-33.28-65.707-27.307-93.867c4.267-19.627,18.773-34.133,26.453-40.96c5.12-5.12,12.8-6.827,19.627-6.827
		l16.213,0.853c6.827,0,11.947,4.267,14.507,10.24l23.04,54.613c2.56,5.973,1.707,12.8-2.56,17.92l-18.773,22.187
		c24.747,46.08,67.413,64.853,82.773,70.827l20.48-26.453c5.12-5.973,12.8-8.533,20.48-5.12l53.76,24.747
		c6.827,3.413,11.093,11.093,9.387,18.773l-2.56,11.947c-3.413,15.36-12.8,29.867-26.453,38.4
		C350.573,376.173,336.92,380.44,322.413,380.44z M171.373,146.627c-2.56,0-5.12,0.853-6.827,2.56
		c-6.827,5.973-17.92,17.067-21.333,32.427c-5.12,23.04,3.413,52.053,23.893,80.213c13.653,18.773,55.467,75.947,134.827,98.133
		c18.773,5.12,35.84,3.413,50.347-5.973c9.387-5.973,16.213-16.213,18.773-27.307l3.413-11.947l-53.76-24.747l-20.48,27.307
		c-4.267,5.12-10.24,6.827-16.213,5.12c-15.36-5.12-66.56-26.453-94.72-81.067c-2.56-5.12-1.707-11.947,1.707-16.213l20.48-23.04
		l-23.04-53.76L171.373,146.627L171.373,146.627z"/>
	<g>
		<path id="SVGCleanerId_0_1_" d="M322.413,380.44c-7.68,0-16.213-0.853-24.747-3.413c-85.333-23.893-129.707-84.48-144.213-104.96
			c-23.893-32.427-33.28-65.707-27.307-93.867c4.267-19.627,18.773-34.133,26.453-40.96c5.12-5.12,12.8-6.827,19.627-6.827
			l16.213,0.853c6.827,0,11.947,4.267,14.507,10.24l23.04,54.613c2.56,5.973,1.707,12.8-2.56,17.92l-18.773,22.187
			c24.747,46.08,67.413,64.853,82.773,70.827l20.48-26.453c5.12-5.973,12.8-8.533,20.48-5.12l53.76,24.747
			c6.827,3.413,11.093,11.093,9.387,18.773l-2.56,11.947c-3.413,15.36-12.8,29.867-26.453,38.4
			C350.573,376.173,336.92,380.44,322.413,380.44z M171.373,146.627c-2.56,0-5.12,0.853-6.827,2.56
			c-6.827,5.973-17.92,17.067-21.333,32.427c-5.12,23.04,3.413,52.053,23.893,80.213c13.653,18.773,55.467,75.947,134.827,98.133
			c18.773,5.12,35.84,3.413,50.347-5.973c9.387-5.973,16.213-16.213,18.773-27.307l3.413-11.947l-53.76-24.747l-20.48,27.307
			c-4.267,5.12-10.24,6.827-16.213,5.12c-15.36-5.12-66.56-26.453-94.72-81.067c-2.56-5.12-1.707-11.947,1.707-16.213l20.48-23.04
			l-23.04-53.76L171.373,146.627L171.373,146.627z"/>
	</g>
</g>
</svg>